<svg xmlns="http://www.w3.org/2000/svg" width="24" height="24" viewBox="0 0 24 24" fill="none" stroke="currentColor" stroke-width="2" stroke-linecap="round" stroke-linejoin="round">
  <path d="M12 22C17.5228 22 22 17.5228 22 12C22 6.47715 17.5228 2 12 2C6.47715 2 2 6.47715 2 12C2 17.5228 6.47715 22 12 22Z" fill="#ffffff" stroke="none"></path>
  <path d="M17.8395 10.1333H12.6276V12.8488H15.6276C15.2913 14.0976 14.1093 14.8488 12.6276 14.8488C10.7913 14.8488 9.2995 13.3738 9.2995 11.5557C9.2995 9.73758 10.7913 8.26263 12.6276 8.26263C13.4185 8.26263 14.1367 8.5526 14.7001 9.03758L16.761 6.99994C15.6549 6.03758 14.2003 5.45331 12.6276 5.45331C9.20022 5.45331 6.42755 8.1821 6.42755 11.5557C6.42755 14.9293 9.20022 17.6583 12.6276 17.6583C16.5731 17.6583 18.9367 15.0738 18.9367 11.7845C18.9367 11.2581 18.8913 11.0238 18.8003 10.6821L17.8395 10.1333Z" fill="#DB4437" stroke="none"></path>
</svg>